<mxfile host="app.diagrams.net" modified="2022-02-17T17:11:01.471Z" agent="5.0 (Windows NT 10.0; Win64; x64) AppleWebKit/537.36 (KHTML, like Gecko) Chrome/99.0.4844.27 Safari/537.36 Edg/99.0.1150.16" etag="cwaTVTwMS3hu4b2hnBha" version="16.1.2" type="github">
  <diagram id="C5RBs43oDa-KdzZeNtuy" name="Page-1">
    <mxGraphModel dx="1422" dy="832" grid="0" gridSize="10" guides="1" tooltips="1" connect="1" arrows="1" fold="1" page="1" pageScale="1" pageWidth="827" pageHeight="1169" math="0" shadow="0">
      <root>
        <mxCell id="WIyWlLk6GJQsqaUBKTNV-0" />
        <mxCell id="WIyWlLk6GJQsqaUBKTNV-1" parent="WIyWlLk6GJQsqaUBKTNV-0" />
        <mxCell id="zkfFHV4jXpPFQw0GAbJ--0" value="Nurse" style="swimlane;fontStyle=2;align=center;verticalAlign=top;childLayout=stackLayout;horizontal=1;startSize=26;horizontalStack=0;resizeParent=1;resizeLast=0;collapsible=1;marginBottom=0;rounded=0;shadow=0;strokeWidth=1;" parent="WIyWlLk6GJQsqaUBKTNV-1" vertex="1">
          <mxGeometry x="190" y="250" width="160" height="138" as="geometry">
            <mxRectangle x="230" y="140" width="160" height="26" as="alternateBounds" />
          </mxGeometry>
        </mxCell>
        <mxCell id="zkfFHV4jXpPFQw0GAbJ--1" value="NurseID" style="text;align=left;verticalAlign=top;spacingLeft=4;spacingRight=4;overflow=hidden;rotatable=0;points=[[0,0.5],[1,0.5]];portConstraint=eastwest;rounded=0;" parent="zkfFHV4jXpPFQw0GAbJ--0" vertex="1">
          <mxGeometry y="26" width="160" height="26" as="geometry" />
        </mxCell>
        <mxCell id="zkfFHV4jXpPFQw0GAbJ--2" value="Name" style="text;align=left;verticalAlign=top;spacingLeft=4;spacingRight=4;overflow=hidden;rotatable=0;points=[[0,0.5],[1,0.5]];portConstraint=eastwest;rounded=0;shadow=0;html=0;" parent="zkfFHV4jXpPFQw0GAbJ--0" vertex="1">
          <mxGeometry y="52" width="160" height="26" as="geometry" />
        </mxCell>
        <mxCell id="zkfFHV4jXpPFQw0GAbJ--3" value="Date" style="text;align=left;verticalAlign=top;spacingLeft=4;spacingRight=4;overflow=hidden;rotatable=0;points=[[0,0.5],[1,0.5]];portConstraint=eastwest;rounded=0;shadow=0;html=0;" parent="zkfFHV4jXpPFQw0GAbJ--0" vertex="1">
          <mxGeometry y="78" width="160" height="26" as="geometry" />
        </mxCell>
        <mxCell id="zkfFHV4jXpPFQw0GAbJ--4" value="" style="line;html=1;strokeWidth=1;align=left;verticalAlign=middle;spacingTop=-1;spacingLeft=3;spacingRight=3;rotatable=0;labelPosition=right;points=[];portConstraint=eastwest;rounded=0;" parent="zkfFHV4jXpPFQw0GAbJ--0" vertex="1">
          <mxGeometry y="104" width="160" height="8" as="geometry" />
        </mxCell>
        <mxCell id="zkfFHV4jXpPFQw0GAbJ--5" value="GOD" style="text;align=left;verticalAlign=top;spacingLeft=4;spacingRight=4;overflow=hidden;rotatable=0;points=[[0,0.5],[1,0.5]];portConstraint=eastwest;rounded=0;" parent="zkfFHV4jXpPFQw0GAbJ--0" vertex="1">
          <mxGeometry y="112" width="160" height="26" as="geometry" />
        </mxCell>
        <mxCell id="zkfFHV4jXpPFQw0GAbJ--17" value="Patient" style="swimlane;fontStyle=0;align=center;verticalAlign=top;childLayout=stackLayout;horizontal=1;startSize=26;horizontalStack=0;resizeParent=1;resizeLast=0;collapsible=1;marginBottom=0;rounded=0;shadow=0;strokeWidth=1;" parent="WIyWlLk6GJQsqaUBKTNV-1" vertex="1">
          <mxGeometry x="478" y="250" width="160" height="216" as="geometry">
            <mxRectangle x="550" y="140" width="160" height="26" as="alternateBounds" />
          </mxGeometry>
        </mxCell>
        <mxCell id="zkfFHV4jXpPFQw0GAbJ--18" value="PatientID" style="text;align=left;verticalAlign=top;spacingLeft=4;spacingRight=4;overflow=hidden;rotatable=0;points=[[0,0.5],[1,0.5]];portConstraint=eastwest;rounded=0;" parent="zkfFHV4jXpPFQw0GAbJ--17" vertex="1">
          <mxGeometry y="26" width="160" height="26" as="geometry" />
        </mxCell>
        <mxCell id="zkfFHV4jXpPFQw0GAbJ--19" value="Name" style="text;align=left;verticalAlign=top;spacingLeft=4;spacingRight=4;overflow=hidden;rotatable=0;points=[[0,0.5],[1,0.5]];portConstraint=eastwest;rounded=0;shadow=0;html=0;" parent="zkfFHV4jXpPFQw0GAbJ--17" vertex="1">
          <mxGeometry y="52" width="160" height="26" as="geometry" />
        </mxCell>
        <mxCell id="zkfFHV4jXpPFQw0GAbJ--20" value="Date" style="text;align=left;verticalAlign=top;spacingLeft=4;spacingRight=4;overflow=hidden;rotatable=0;points=[[0,0.5],[1,0.5]];portConstraint=eastwest;rounded=0;shadow=0;html=0;" parent="zkfFHV4jXpPFQw0GAbJ--17" vertex="1">
          <mxGeometry y="78" width="160" height="26" as="geometry" />
        </mxCell>
        <mxCell id="zkfFHV4jXpPFQw0GAbJ--21" value="LiveOrDead" style="text;align=left;verticalAlign=top;spacingLeft=4;spacingRight=4;overflow=hidden;rotatable=0;points=[[0,0.5],[1,0.5]];portConstraint=eastwest;rounded=0;shadow=0;html=0;" parent="zkfFHV4jXpPFQw0GAbJ--17" vertex="1">
          <mxGeometry y="104" width="160" height="26" as="geometry" />
        </mxCell>
        <mxCell id="zkfFHV4jXpPFQw0GAbJ--22" value="Level" style="text;align=left;verticalAlign=top;spacingLeft=4;spacingRight=4;overflow=hidden;rotatable=0;points=[[0,0.5],[1,0.5]];portConstraint=eastwest;rounded=0;shadow=0;html=0;" parent="zkfFHV4jXpPFQw0GAbJ--17" vertex="1">
          <mxGeometry y="130" width="160" height="26" as="geometry" />
        </mxCell>
        <mxCell id="zkfFHV4jXpPFQw0GAbJ--23" value="" style="line;html=1;strokeWidth=1;align=left;verticalAlign=middle;spacingTop=-1;spacingLeft=3;spacingRight=3;rotatable=0;labelPosition=right;points=[];portConstraint=eastwest;rounded=0;" parent="zkfFHV4jXpPFQw0GAbJ--17" vertex="1">
          <mxGeometry y="156" width="160" height="8" as="geometry" />
        </mxCell>
        <mxCell id="zkfFHV4jXpPFQw0GAbJ--24" value="Validate" style="text;align=left;verticalAlign=top;spacingLeft=4;spacingRight=4;overflow=hidden;rotatable=0;points=[[0,0.5],[1,0.5]];portConstraint=eastwest;rounded=0;" parent="zkfFHV4jXpPFQw0GAbJ--17" vertex="1">
          <mxGeometry y="164" width="160" height="26" as="geometry" />
        </mxCell>
        <mxCell id="zkfFHV4jXpPFQw0GAbJ--25" value="Output As Label" style="text;align=left;verticalAlign=top;spacingLeft=4;spacingRight=4;overflow=hidden;rotatable=0;points=[[0,0.5],[1,0.5]];portConstraint=eastwest;rounded=0;" parent="zkfFHV4jXpPFQw0GAbJ--17" vertex="1">
          <mxGeometry y="190" width="160" height="26" as="geometry" />
        </mxCell>
        <mxCell id="zkfFHV4jXpPFQw0GAbJ--26" value="" style="endArrow=ERzeroToMany;shadow=0;strokeWidth=1;rounded=0;endFill=0;edgeStyle=elbowEdgeStyle;elbow=vertical;startArrow=ERmandOne;startFill=0;" parent="WIyWlLk6GJQsqaUBKTNV-1" source="zkfFHV4jXpPFQw0GAbJ--0" target="zkfFHV4jXpPFQw0GAbJ--17" edge="1">
          <mxGeometry x="0.5" y="41" relative="1" as="geometry">
            <mxPoint x="350" y="322" as="sourcePoint" />
            <mxPoint x="510" y="322" as="targetPoint" />
            <mxPoint x="-40" y="32" as="offset" />
          </mxGeometry>
        </mxCell>
        <mxCell id="zkfFHV4jXpPFQw0GAbJ--29" value="&lt;b&gt;&lt;u&gt;Taking care of&lt;/u&gt;&lt;/b&gt;" style="text;html=1;resizable=0;points=[];;align=center;verticalAlign=middle;labelBackgroundColor=none;rounded=0;shadow=0;strokeWidth=1;fontSize=12;" parent="zkfFHV4jXpPFQw0GAbJ--26" vertex="1" connectable="0">
          <mxGeometry x="0.5" y="49" relative="1" as="geometry">
            <mxPoint x="-38" y="35" as="offset" />
          </mxGeometry>
        </mxCell>
        <mxCell id="Jfw_HgJNsNN7jVGEWSjA-0" value="" style="endArrow=classic;html=1;rounded=0;" edge="1" parent="WIyWlLk6GJQsqaUBKTNV-1">
          <mxGeometry width="50" height="50" relative="1" as="geometry">
            <mxPoint x="510" y="210" as="sourcePoint" />
            <mxPoint x="290" y="210" as="targetPoint" />
          </mxGeometry>
        </mxCell>
        <mxCell id="Jfw_HgJNsNN7jVGEWSjA-1" value="Các bệnh nhân&lt;b&gt;&lt;u&gt; được chăm sóc&lt;/u&gt;&lt;/b&gt; bởi 1 và chỉ 1 y tá" style="text;html=1;align=center;verticalAlign=middle;resizable=0;points=[];autosize=1;strokeColor=none;fillColor=none;strokeWidth=1;fontSize=17;" vertex="1" parent="WIyWlLk6GJQsqaUBKTNV-1">
          <mxGeometry x="208" y="168" width="400" height="24" as="geometry" />
        </mxCell>
        <mxCell id="Jfw_HgJNsNN7jVGEWSjA-2" value="" style="endArrow=classic;html=1;rounded=0;" edge="1" parent="WIyWlLk6GJQsqaUBKTNV-1">
          <mxGeometry width="50" height="50" relative="1" as="geometry">
            <mxPoint x="298.5" y="510" as="sourcePoint" />
            <mxPoint x="517.5" y="510" as="targetPoint" />
          </mxGeometry>
        </mxCell>
        <mxCell id="Jfw_HgJNsNN7jVGEWSjA-3" value="1 y tá có thể &lt;b&gt;&lt;u&gt;chăm sóc&lt;/u&gt;&lt;/b&gt; nhiều bệnh nhân, hoặc &lt;br&gt;không &lt;b&gt;&lt;u&gt;chăm sóc&lt;/u&gt;&lt;/b&gt; bất kỳ bệnh nhân nào" style="text;html=1;align=center;verticalAlign=middle;resizable=0;points=[];autosize=1;strokeColor=none;fillColor=none;fontSize=17;" vertex="1" parent="WIyWlLk6GJQsqaUBKTNV-1">
          <mxGeometry x="246" y="522" width="364" height="44" as="geometry" />
        </mxCell>
        <mxCell id="Jfw_HgJNsNN7jVGEWSjA-5" value="" style="ellipse;whiteSpace=wrap;html=1;fontSize=17;strokeWidth=1;fillColor=none;dashed=1;" vertex="1" parent="WIyWlLk6GJQsqaUBKTNV-1">
          <mxGeometry x="342" y="305" width="24.22" height="25" as="geometry" />
        </mxCell>
        <mxCell id="Jfw_HgJNsNN7jVGEWSjA-12" value="" style="ellipse;whiteSpace=wrap;html=1;fontSize=17;strokeWidth=1;fillColor=none;dashed=1;" vertex="1" parent="WIyWlLk6GJQsqaUBKTNV-1">
          <mxGeometry x="457.78" y="306" width="24.22" height="25" as="geometry" />
        </mxCell>
        <mxCell id="Jfw_HgJNsNN7jVGEWSjA-14" value="&lt;br class=&quot;Apple-interchange-newline&quot;&gt;&lt;table style=&quot;box-sizing: border-box; border-collapse: collapse; border-spacing: 0px; width: 696px; margin-bottom: 21px; margin-left: auto; margin-right: auto; color: rgb(34, 34, 34); font-family: roboto; font-size: 15px; font-style: normal; font-weight: 400; letter-spacing: normal; text-transform: none; word-spacing: 0px; background-color: rgb(255, 255, 255);&quot;&gt;&lt;tbody style=&quot;box-sizing: border-box&quot;&gt;&lt;tr style=&quot;box-sizing: border-box&quot;&gt;&lt;/tr&gt;&lt;tr style=&quot;box-sizing: border-box&quot;&gt;&lt;td style=&quot;box-sizing: border-box ; padding: 2px 8px ; border: 1px solid rgb(237 , 237 , 237)&quot;&gt;Lược đồ&lt;/td&gt;&lt;td style=&quot;box-sizing: border-box ; padding: 2px 8px ; border: 1px solid rgb(237 , 237 , 237)&quot;&gt;Theo mặc định, EF tạo tất cả các đối tượng DB vào lược đồ&lt;span&gt;&amp;nbsp;&lt;/span&gt;&lt;strong style=&quot;box-sizing: border-box ; font-weight: 700&quot;&gt;dbo&lt;/strong&gt;&lt;span&gt;&amp;nbsp;&lt;/span&gt;.&lt;/td&gt;&lt;/tr&gt;&lt;tr style=&quot;box-sizing: border-box&quot;&gt;&lt;td style=&quot;box-sizing: border-box ; padding: 2px 8px ; border: 1px solid rgb(237 , 237 , 237)&quot;&gt;Tên bảng&lt;/td&gt;&lt;td style=&quot;box-sizing: border-box ; padding: 2px 8px ; border: 1px solid rgb(237 , 237 , 237)&quot;&gt;+ “s” EF sẽ tạo bảng DB với tên lớp thực thể thêm “s” ở cuối, ví dụ: lớp Student sẽ ánh xạ tới bảng Students.&lt;/td&gt;&lt;/tr&gt;&lt;tr style=&quot;box-sizing: border-box&quot;&gt;&lt;td style=&quot;box-sizing: border-box ; padding: 2px 8px ; border: 1px solid rgb(237 , 237 , 237)&quot;&gt;Tên khóa chính&lt;/td&gt;&lt;td style=&quot;box-sizing: border-box ; padding: 2px 8px ; border: 1px solid rgb(237 , 237 , 237)&quot;&gt;1) Id 2) + “Id” (không phân biệt chữ hoa chữ thường) EF sẽ tạo cột khóa chính cho thuộc tính có tên Id hoặc + “Id” (không phân biệt chữ hoa chữ thường).&lt;/td&gt;&lt;/tr&gt;&lt;tr style=&quot;box-sizing: border-box&quot;&gt;&lt;td style=&quot;box-sizing: border-box ; padding: 2px 8px ; border: 1px solid rgb(237 , 237 , 237)&quot;&gt;Tên khóa ngoại&lt;/td&gt;&lt;td style=&quot;box-sizing: border-box ; padding: 2px 8px ; border: 1px solid rgb(237 , 237 , 237)&quot;&gt;Theo mặc định, EF sẽ tìm thuộc tính khóa ngoại có cùng tên với tên khóa chính của thực thể chính.Nếu thuộc tính khóa ngoại không tồn tại, thì EF sẽ tạo cột khóa ngoại trong bảng Db với + “_” + ví dụ: EF sẽ tạo cột khóa ngoại Grade_GradeId trong bảng Students nếu thực thể Student không chứa thuộc tính khóa ngoại cho Grade.&lt;/td&gt;&lt;/tr&gt;&lt;tr style=&quot;box-sizing: border-box&quot;&gt;&lt;td style=&quot;box-sizing: border-box ; padding: 2px 8px ; border: 1px solid rgb(237 , 237 , 237)&quot;&gt;Cột Null&lt;/td&gt;&lt;td style=&quot;box-sizing: border-box ; padding: 2px 8px ; border: 1px solid rgb(237 , 237 , 237)&quot;&gt;EF tạo một cột null cho tất cả các thuộc tính kiểu tham chiếu và các thuộc tính kiểu nguyên thủy nullable, ví dụ: string, Nullable , Student, Grade (tất cả các thuộc tính kiểu lớp)&lt;/td&gt;&lt;/tr&gt;&lt;tr style=&quot;box-sizing: border-box&quot;&gt;&lt;td style=&quot;box-sizing: border-box ; padding: 2px 8px ; border: 1px solid rgb(237 , 237 , 237)&quot;&gt;Cột Not Null&lt;/td&gt;&lt;td style=&quot;box-sizing: border-box ; padding: 2px 8px ; border: 1px solid rgb(237 , 237 , 237)&quot;&gt;EF tạo các cột Not Null cho các thuộc tính khóa chính và các thuộc tính kiểu giá trị không nullable, ví dụ: int, float, binary, datetime, v.v.&lt;/td&gt;&lt;/tr&gt;&lt;tr style=&quot;box-sizing: border-box&quot;&gt;&lt;td style=&quot;box-sizing: border-box ; padding: 2px 8px ; border: 1px solid rgb(237 , 237 , 237)&quot;&gt;Thứ tự cột&lt;/td&gt;&lt;td style=&quot;box-sizing: border-box ; padding: 2px 8px ; border: 1px solid rgb(237 , 237 , 237)&quot;&gt;EF sẽ tạo các cột theo cùng thứ tự như các thuộc tính trong một lớp thực thể. Tuy nhiên, các cột khóa chính sẽ được di chuyển lên đầu tiên.&lt;/td&gt;&lt;/tr&gt;&lt;tr style=&quot;box-sizing: border-box&quot;&gt;&lt;td style=&quot;box-sizing: border-box ; padding: 2px 8px ; border: 1px solid rgb(237 , 237 , 237)&quot;&gt;Ánh xạ thuộc tính vào DB&lt;/td&gt;&lt;td style=&quot;box-sizing: border-box ; padding: 2px 8px ; border: 1px solid rgb(237 , 237 , 237)&quot;&gt;Theo mặc định, tất cả các thuộc tính sẽ ánh xạ tới cơ sở dữ liệu. Sử dụng thuộc tính để loại trừ thuộc tính hoặc lớp không ánh xạ vào DB.&lt;/td&gt;&lt;/tr&gt;&lt;tr style=&quot;box-sizing: border-box&quot;&gt;&lt;td style=&quot;box-sizing: border-box ; padding: 2px 8px ; border: 1px solid rgb(237 , 237 , 237)&quot;&gt;Cascade delete&lt;/td&gt;&lt;td style=&quot;box-sizing: border-box ; padding: 2px 8px ; border: 1px solid rgb(237 , 237 , 237)&quot;&gt;Được bật theo mặc định cho tất cả các loại mối quan hệ.&lt;/td&gt;&lt;/tr&gt;&lt;/tbody&gt;&lt;/table&gt;" style="text;whiteSpace=wrap;html=1;" vertex="1" parent="WIyWlLk6GJQsqaUBKTNV-1">
          <mxGeometry x="64" y="603" width="746" height="503" as="geometry" />
        </mxCell>
      </root>
    </mxGraphModel>
  </diagram>
</mxfile>
